<svg width="32" height="32" viewBox="0 0 32 32" fill="none" xmlns="http://www.w3.org/2000/svg">
  <!-- Fire/Flame icon for Fireteam -->
  <path d="M16 4C16 4 10 9 10 15C10 18.866 13.134 22 17 22C20.866 22 24 18.866 24 15C24 11 20 8 20 8C20 8 22 10.5 22 13C22 15.209 20.209 17 18 17C15.791 17 14 15.209 14 13C14 10 16 8 16 8V4Z" fill="#FF4500"/>
  <path d="M16 28C16 28 12 24 12 20C12 17.791 13.791 16 16 16C18.209 16 20 17.791 20 20C20 22 18 23 18 23C18 23 19 22 19 20.5C19 19.119 17.881 18 16.5 18C15.119 18 14 19.119 14 20.5C14 23 16 25 16 25V28Z" fill="#DC143C"/>
</svg>
